<mxfile host="app.diagrams.net" agent="Mozilla/5.0 (Windows NT 10.0; Win64; x64) AppleWebKit/537.36 (KHTML, like Gecko) Chrome/136.0.0.0 Safari/537.36 Edg/136.0.0.0" version="26.0.15">
  <diagram name="Page-1" id="9ujo2xuI9oYXNsEArW_9">
    <mxGraphModel dx="2623" dy="-1360" grid="1" gridSize="10" guides="1" tooltips="1" connect="1" arrows="1" fold="1" page="1" pageScale="1" pageWidth="850" pageHeight="1100" math="0" shadow="0">
      <root>
        <mxCell id="0" />
        <mxCell id="1" parent="0" />
        <mxCell id="a9zYbdTksKT8D-8bMN3L-53" value="ผู้เล่นคนที่ 1 สร้างห้อง" style="whiteSpace=wrap;strokeWidth=2;" vertex="1" parent="1">
          <mxGeometry x="1173" y="3359" width="205" height="54" as="geometry" />
        </mxCell>
        <mxCell id="a9zYbdTksKT8D-8bMN3L-54" value="สร้าง roomId และ playerId" style="whiteSpace=wrap;strokeWidth=2;" vertex="1" parent="1">
          <mxGeometry x="1154" y="3463" width="241" height="54" as="geometry" />
        </mxCell>
        <mxCell id="a9zYbdTksKT8D-8bMN3L-55" value="แสดง QR Code: roomId + playerId" style="whiteSpace=wrap;strokeWidth=2;" vertex="1" parent="1">
          <mxGeometry x="1145" y="3567" width="260" height="78" as="geometry" />
        </mxCell>
        <mxCell id="a9zYbdTksKT8D-8bMN3L-56" value="ผู้เล่น 2 สแกน QR Code" style="whiteSpace=wrap;strokeWidth=2;" vertex="1" parent="1">
          <mxGeometry x="1166" y="3695" width="217" height="54" as="geometry" />
        </mxCell>
        <mxCell id="a9zYbdTksKT8D-8bMN3L-57" value="รับข้อมูลจาก QR และสร้างห้องใน Firestore" style="whiteSpace=wrap;strokeWidth=2;" vertex="1" parent="1">
          <mxGeometry x="1145" y="3799" width="260" height="78" as="geometry" />
        </mxCell>
        <mxCell id="a9zYbdTksKT8D-8bMN3L-58" value="เพิ่ม player2Id และเริ่มเกม" style="whiteSpace=wrap;strokeWidth=2;" vertex="1" parent="1">
          <mxGeometry x="1157" y="3927" width="235" height="54" as="geometry" />
        </mxCell>
        <mxCell id="a9zYbdTksKT8D-8bMN3L-59" value="เล่นเกมและอัปเดตข้อมูลจนทั้งสองกด Save" style="whiteSpace=wrap;strokeWidth=2;" vertex="1" parent="1">
          <mxGeometry x="1145" y="4031" width="260" height="78" as="geometry" />
        </mxCell>
        <mxCell id="a9zYbdTksKT8D-8bMN3L-60" value="ยืนยันจบเกม" style="whiteSpace=wrap;strokeWidth=2;" vertex="1" parent="1">
          <mxGeometry x="1204" y="4159" width="142" height="54" as="geometry" />
        </mxCell>
        <mxCell id="a9zYbdTksKT8D-8bMN3L-61" value="แสดงประวัติการเล่นของทั้งสองคน" style="whiteSpace=wrap;strokeWidth=2;" vertex="1" parent="1">
          <mxGeometry x="1145" y="4263" width="260" height="78" as="geometry" />
        </mxCell>
        <mxCell id="a9zYbdTksKT8D-8bMN3L-62" value="" style="curved=1;startArrow=none;endArrow=block;exitX=0.5;exitY=1;entryX=0.5;entryY=0;rounded=0;" edge="1" parent="1" source="a9zYbdTksKT8D-8bMN3L-53" target="a9zYbdTksKT8D-8bMN3L-54">
          <mxGeometry relative="1" as="geometry">
            <Array as="points" />
          </mxGeometry>
        </mxCell>
        <mxCell id="a9zYbdTksKT8D-8bMN3L-63" value="" style="curved=1;startArrow=none;endArrow=block;exitX=0.5;exitY=1;entryX=0.5;entryY=0;rounded=0;" edge="1" parent="1" source="a9zYbdTksKT8D-8bMN3L-54" target="a9zYbdTksKT8D-8bMN3L-55">
          <mxGeometry relative="1" as="geometry">
            <Array as="points" />
          </mxGeometry>
        </mxCell>
        <mxCell id="a9zYbdTksKT8D-8bMN3L-64" value="" style="curved=1;startArrow=none;endArrow=block;exitX=0.5;exitY=1;entryX=0.5;entryY=0;rounded=0;" edge="1" parent="1" source="a9zYbdTksKT8D-8bMN3L-55" target="a9zYbdTksKT8D-8bMN3L-56">
          <mxGeometry relative="1" as="geometry">
            <Array as="points" />
          </mxGeometry>
        </mxCell>
        <mxCell id="a9zYbdTksKT8D-8bMN3L-65" value="" style="curved=1;startArrow=none;endArrow=block;exitX=0.5;exitY=1;entryX=0.5;entryY=0;rounded=0;" edge="1" parent="1" source="a9zYbdTksKT8D-8bMN3L-56" target="a9zYbdTksKT8D-8bMN3L-57">
          <mxGeometry relative="1" as="geometry">
            <Array as="points" />
          </mxGeometry>
        </mxCell>
        <mxCell id="a9zYbdTksKT8D-8bMN3L-66" value="" style="curved=1;startArrow=none;endArrow=block;exitX=0.5;exitY=1;entryX=0.5;entryY=0;rounded=0;" edge="1" parent="1" source="a9zYbdTksKT8D-8bMN3L-57" target="a9zYbdTksKT8D-8bMN3L-58">
          <mxGeometry relative="1" as="geometry">
            <Array as="points" />
          </mxGeometry>
        </mxCell>
        <mxCell id="a9zYbdTksKT8D-8bMN3L-67" value="" style="curved=1;startArrow=none;endArrow=block;exitX=0.5;exitY=1;entryX=0.5;entryY=0;rounded=0;" edge="1" parent="1" source="a9zYbdTksKT8D-8bMN3L-58" target="a9zYbdTksKT8D-8bMN3L-59">
          <mxGeometry relative="1" as="geometry">
            <Array as="points" />
          </mxGeometry>
        </mxCell>
        <mxCell id="a9zYbdTksKT8D-8bMN3L-68" value="" style="curved=1;startArrow=none;endArrow=block;exitX=0.5;exitY=1;entryX=0.5;entryY=0;rounded=0;" edge="1" parent="1" source="a9zYbdTksKT8D-8bMN3L-59" target="a9zYbdTksKT8D-8bMN3L-60">
          <mxGeometry relative="1" as="geometry">
            <Array as="points" />
          </mxGeometry>
        </mxCell>
        <mxCell id="a9zYbdTksKT8D-8bMN3L-69" value="" style="curved=1;startArrow=none;endArrow=block;exitX=0.5;exitY=1;entryX=0.5;entryY=0;rounded=0;" edge="1" parent="1" source="a9zYbdTksKT8D-8bMN3L-60" target="a9zYbdTksKT8D-8bMN3L-61">
          <mxGeometry relative="1" as="geometry">
            <Array as="points" />
          </mxGeometry>
        </mxCell>
      </root>
    </mxGraphModel>
  </diagram>
</mxfile>
